<svg width="72" height="69" viewBox="0 0 72 69" fill="none" xmlns="http://www.w3.org/2000/svg">
<path d="M0 3C0 1.34315 1.34315 0 3 0L69 0C70.6569 0 72 1.34315 72 3V66C72 67.6569 70.6569 69 69 69H3C1.34315 69 0 67.6569 0 66L0 3Z" fill="white"/>
<path d="M1 4C1 2.34315 2.34315 1 4 1L68 1C69.6569 1 71 2.34315 71 4V65C71 66.6569 69.6569 68 68 68H4C2.34315 68 1 66.6569 1 65L1 4Z" fill="#0C0C4F"/>
<path d="M19.977 8.92018V11.451H19.9805L19.9798 14.1682H13.7438V14.1765H12.7013L9.29386 21.7486H19.9807V24.7662H19.9771L19.9807 50.3242C19.9807 53.854 17.2733 56.7155 13.9336 56.7155H12.0421L8 63H42.9493L38.7964 56.7155H34.2243C30.8845 56.7155 28.1771 53.854 28.1771 50.3242L28.1736 27.9673C28.2595 24.5367 30.9032 21.7797 34.1628 21.7486H57L52.9895 14.1765H35.7192V14.1682L28.1705 14.1681L28.1711 11.451H28.1734V6L19.977 8.92018Z" fill="white"/>
<path d="M24 7.5297V57.5C24.0852 56.0565 25.1405 53.4869 28.2424 51.8911V35.0644L28.2424 33.5347L28.2424 28.4356C28.7727 25.8861 28.7727 23.3366 33.0151 22.3168L57.5 22L55 18L31.9546 18.2376C28.4203 18.2376 28.2424 15.6881 28.2424 15.6881V10.5891V6L24 7.5297Z" fill="#DFDFDF"/>
<path d="M11.9761 18L9 22H26V18H11.9761Z" fill="#DFDFDF"/>
<mask id="mask0_2002_18" style="mask-type:luminance" maskUnits="userSpaceOnUse" x="35" y="26" width="28" height="28">
<path d="M62.5806 26H35V53.5806H62.5806V26Z" fill="white"/>
</mask>
<g mask="url(#mask0_2002_18)">
<path fill-rule="evenodd" clip-rule="evenodd" d="M35 39.877C35 47.4453 41.174 53.5803 48.7901 53.5803C56.4063 53.5803 62.5806 47.4453 62.5806 39.877C62.5806 32.3087 56.4063 26.1735 48.7901 26.1735C41.174 26.1735 35 32.3087 35 39.877Z" fill="white"/>
<path fill-rule="evenodd" clip-rule="evenodd" d="M42.7075 36.6478L43.0479 35.6027C43.1171 35.3901 43.2859 35.2247 43.5006 35.1596L44.5574 34.8366C44.7037 34.7922 44.7049 34.5871 44.5598 34.5403L43.5077 34.2021C43.2943 34.1333 43.1278 33.9655 43.0618 33.7522L42.7371 32.7019C42.6924 32.557 42.486 32.5554 42.439 32.7L42.0986 33.745C42.0294 33.9573 41.8606 34.1226 41.6459 34.1883L40.5891 34.5109C40.4428 34.5556 40.4411 34.7603 40.5867 34.8071L41.6388 35.1453C41.8522 35.2142 42.0187 35.3822 42.0847 35.5956L42.4094 36.6454C42.4541 36.7908 42.6604 36.7923 42.7075 36.6478Z" fill="#FAFAFA"/>
</g>
<mask id="mask1_2002_18" style="mask-type:luminance" maskUnits="userSpaceOnUse" x="36" y="27" width="26" height="26">
<path d="M61.5806 27H36V52.5806H61.5806V27Z" fill="white"/>
</mask>
<g mask="url(#mask1_2002_18)">
<path fill-rule="evenodd" clip-rule="evenodd" d="M36 39.8707C36 46.8902 41.7263 52.5804 48.7902 52.5804C55.854 52.5804 61.5806 46.8902 61.5806 39.8707C61.5806 32.8512 55.854 27.1609 48.7902 27.1609C41.7263 27.1609 36 32.8512 36 39.8707Z" fill="#0C0C4F"/>
<path fill-rule="evenodd" clip-rule="evenodd" d="M43.1486 36.8757L43.4643 35.9064C43.5285 35.7092 43.685 35.5558 43.8841 35.4954L44.8644 35.1958C45 35.1546 45.0012 34.9644 44.8666 34.921L43.8908 34.6073C43.6928 34.5435 43.5384 34.3879 43.4771 34.1901L43.1761 33.216C43.1346 33.0816 42.9432 33.0801 42.8995 33.2142L42.5839 34.1834C42.5197 34.3803 42.3631 34.5336 42.164 34.5945L41.1838 34.8937C41.0481 34.9352 41.0466 35.1251 41.1815 35.1685L42.1574 35.4822C42.3553 35.546 42.5098 35.7019 42.571 35.8998L42.8721 36.8735C42.9135 37.0083 43.1049 37.0098 43.1486 36.8757Z" fill="#FAFAFA"/>
<path fill-rule="evenodd" clip-rule="evenodd" d="M58.6421 36.3117C58.2381 35.8627 57.6075 35.6098 56.9944 35.5062C56.3763 35.4066 55.7282 35.4159 55.1182 35.5235C53.8837 35.7311 52.7621 36.239 51.7839 36.8656C51.276 37.1732 50.8428 37.5291 50.394 37.8914C50.1777 38.0747 49.9807 38.2699 49.7753 38.4623L49.2143 39.0169C48.6047 39.6502 48.0038 40.2269 47.4224 40.7049C46.8388 41.1808 46.293 41.5422 45.7553 41.7946C45.2177 42.0482 44.6427 42.1974 43.8931 42.2213C43.15 42.2473 42.271 42.1141 41.3307 41.8942C40.3854 41.6752 39.3926 41.363 38.2832 41.0945C38.6704 42.1616 39.2533 43.1045 40.0016 43.9665C40.7588 44.8135 41.7041 45.5857 42.9187 46.0934C44.1157 46.6124 45.6199 46.7986 47.0264 46.5174C48.4367 46.2478 49.6742 45.5993 50.6746 44.8495C51.6775 44.0918 52.4889 43.2287 53.1729 42.3316C53.3617 42.0836 53.4616 41.9449 53.5983 41.7512L53.9759 41.1952C54.2384 40.8513 54.4773 40.4598 54.737 40.1191C55.2464 39.4055 55.7486 38.6928 56.3321 38.0362C56.6258 37.7031 56.9355 37.3845 57.3011 37.0784C57.4835 36.9289 57.6804 36.7827 57.8987 36.651C58.1202 36.5089 58.3542 36.3977 58.6421 36.3117Z" fill="url(#paint0_linear_2002_18)"/>
<path fill-rule="evenodd" clip-rule="evenodd" d="M58.6421 36.3123C58.2081 35.2237 57.401 34.3074 56.3178 33.6313C55.2411 32.9626 53.7457 32.6212 52.2638 32.9123C51.5319 33.0529 50.8226 33.3238 50.2002 33.6844C49.5807 34.0438 49.0255 34.4763 48.5448 34.9402C48.3049 35.173 48.087 35.4157 47.8707 35.66L47.3099 36.3705L46.4437 37.5142C45.3395 38.9857 44.1504 40.7102 42.199 41.2212C40.2834 41.7228 39.4524 41.2786 38.2832 41.095C38.4971 41.6435 38.7618 42.1761 39.1208 42.6447C39.4732 43.1228 39.8894 43.5718 40.4067 43.9567C40.6682 44.1415 40.9442 44.3239 41.2508 44.4787C41.556 44.6282 41.8852 44.7598 42.2364 44.8589C42.9352 45.0492 43.7218 45.1158 44.4836 45.0135C45.2457 44.9125 45.9741 44.6724 46.6108 44.3537C47.2522 44.038 47.8109 43.6536 48.3097 43.2478C49.3015 42.4294 50.0729 41.5251 50.7246 40.611C51.0522 40.154 51.3498 39.6883 51.625 39.2226L51.9488 38.6681C52.0478 38.506 52.1479 38.3429 52.2496 38.191C52.66 37.5808 53.0613 37.0914 53.5489 36.7243C54.0296 36.3475 54.699 36.0692 55.5936 36.0044C56.4843 35.939 57.5127 36.0599 58.6421 36.3123Z" fill="#FAFAFA"/>
<path fill-rule="evenodd" clip-rule="evenodd" d="M53.8224 45.3563C53.8224 46.1557 54.4752 46.8042 55.2796 46.8042C56.0843 46.8042 56.736 46.1557 56.736 45.3563C56.736 44.5566 56.0843 43.9083 55.2796 43.9083C54.4752 43.9083 53.8224 44.5566 53.8224 45.3563Z" fill="url(#paint1_linear_2002_18)"/>
</g>
<defs>
<linearGradient id="paint0_linear_2002_18" x1="58.5334" y1="35.9298" x2="40.6681" y2="45.9191" gradientUnits="userSpaceOnUse">
<stop stop-color="#EC796B"/>
<stop offset="1" stop-color="#E175B1"/>
</linearGradient>
<linearGradient id="paint1_linear_2002_18" x1="56.735" y1="44.3405" x2="53.8209" y2="44.6506" gradientUnits="userSpaceOnUse">
<stop stop-color="#EC796B"/>
<stop offset="1" stop-color="#E175B1"/>
</linearGradient>
</defs>
</svg>
